<svg id="Layer_1" data-name="Layer 1" xmlns="http://www.w3.org/2000/svg" viewBox="0 0 300 300"><defs><style>.cls-1{fill:#ff3400;}.cls-2{fill:#f70;}.cls-3{fill:#ce0043;opacity:0.92;}.cls-4{fill:#fc0;}.cls-5{fill:#fff;}</style></defs><title>LVIS-IconMark</title><path class="cls-1" d="M300,182.35v43.27a74.75,74.75,0,0,1-71.76,74.69h0l-93.85-93.87,94.86-94.85Z"/><path class="cls-2" d="M116.77,206.61l-82.11,82.1A74.66,74.66,0,0,1,0,225.62v-1.43L67.18,157Z"/><path class="cls-3" d="M210.53,300.37H74.75a74.36,74.36,0,0,1-28.64-5.7l79.36-79.36Z"/><path class="cls-4" d="M225.25.37H74.75A74.75,74.75,0,0,0,0,75.11V206.8l58.49-58.51,8.71-8.73,58.31,58.34.19-.18L229.2,94.18l0-.06L300,164.88V75.11A74.75,74.75,0,0,0,225.25.37ZM78.87,27h26.32V37.5H89.38V53.31H78.87Zm26.24,98.24H78.79V98.91H89.3v15.81h15.81Zm-9.72-49.1A32.54,32.54,0,1,1,128,108.67,32.56,32.56,0,0,1,95.39,76.13ZM177,125.23H150.7V114.72h15.81V98.91H177Zm.12-71.92h-10.5V37.5H150.82V27h26.31Z"/><path class="cls-5" d="M160.47,76.12a32.54,32.54,0,1,1-32.53-32.55A32.54,32.54,0,0,1,160.47,76.12Z"/><polygon class="cls-5" points="105.19 26.99 105.19 37.5 89.38 37.5 89.38 53.31 78.87 53.31 78.87 26.99 105.19 26.99"/><polygon class="cls-5" points="105.11 114.72 105.11 125.23 78.79 125.23 78.79 98.92 89.3 98.92 89.3 114.72 105.11 114.72"/><polygon class="cls-5" points="177.01 98.92 177.01 125.23 150.7 125.23 150.7 114.72 166.51 114.72 166.51 98.92 177.01 98.92"/><polygon class="cls-5" points="177.13 26.99 177.13 53.31 166.63 53.31 166.63 37.5 150.82 37.5 150.82 26.99 177.13 26.99"/><path class="cls-5" d="M300,164.88v17.47l-70.76-70.76,0,0-94.86,94.85,0,0,93.85,93.87c-1,0-2,.06-3,.06H210.53l-85.06-85.06L46.11,294.67a73.14,73.14,0,0,1-11.45-6l82.11-82.1L67.18,157,0,224.19V206.8l58.49-58.51,8.71-8.73,58.31,58.34.19-.18L229.2,94.18l0-.06Z"/></svg>